<svg id="Layer_1" data-name="Layer 1" xmlns="http://www.w3.org/2000/svg" xmlns:xlink="http://www.w3.org/1999/xlink" viewBox="0 0 1840 450"><defs><style>.cls-1{fill:url(#linear-gradient);}.cls-2{fill:#241f20;}</style><linearGradient id="linear-gradient" x1="244.56" y1="350.41" x2="244.56" y2="97.27" gradientTransform="matrix(-1, 0, 0, 1, 499.12, 0)" gradientUnits="userSpaceOnUse"><stop offset="0" stop-color="#ff5252"/><stop offset="1" stop-color="#ff867f"/></linearGradient></defs><title>Logo</title><path class="cls-1" d="M345.59,157.86V314.63H237.21V157.86h-39V322.42a31.17,31.17,0,0,0,31.17,31.17H384.56V196.82A39,39,0,0,0,345.59,157.86Zm-73.67,77.3H247.26l44.21,59.24,44.81-59.24h-25.4V127.58a31.16,31.16,0,0,0-31.17-31.17H124.56V197.1a39,39,0,0,0,39,39V135.37H271.92Z"/><path class="cls-2" d="M472.42,317.1V140.4h37.36V286.3h75.75v30.8Z"/><path class="cls-2" d="M622.07,167.5A20,20,0,0,1,608,162.06a17.63,17.63,0,0,1,0-26.27,20.78,20.78,0,0,1,28.08,0,17.71,17.71,0,0,1,0,26.27A19.73,19.73,0,0,1,622.07,167.5ZM603.52,317.1V184.58h36.76V317.1Z"/><path class="cls-2" d="M700.29,240.49V317.1H663.54V184.58h35V208h1.56a37.14,37.14,0,0,1,14.75-18.33q10.35-6.78,25.11-6.78,13.8,0,24.07,6a41.13,41.13,0,0,1,16,17.22q5.7,11.16,5.7,26.61V317.1H749V239.28q.09-12.17-6.21-19T725.4,213.4a26.07,26.07,0,0,0-13.07,3.19,22,22,0,0,0-8.8,9.27A32.23,32.23,0,0,0,700.29,240.49Z"/><path class="cls-2" d="M808.53,317.1V140.4h36.76V317.1ZM841.84,279l.08-44.09h5.35l42.45-50.3h42.19l-57,66.61h-8.71Zm49.52,38.13-39-57.72,24.5-26,57.55,83.69Z"/><path class="cls-2" d="M944.47,317.1V140.4h36.75v66.44h1.12a48.61,48.61,0,0,1,7-10.92,36.84,36.84,0,0,1,12.08-9.31q7.45-3.77,18.59-3.76a50,50,0,0,1,26.74,7.55q12.26,7.56,19.59,22.69t7.33,37.92q0,22.19-7.12,37.4t-19.32,23a49.58,49.58,0,0,1-27.31,7.81q-10.69,0-18.16-3.54a37.1,37.1,0,0,1-12.21-8.93,44.47,44.47,0,0,1-7.25-10.91H980.7V317.1Zm36-66.26a59.13,59.13,0,0,0,3.27,20.62,30.31,30.31,0,0,0,9.5,13.68,25.78,25.78,0,0,0,30.28-.09,30.68,30.68,0,0,0,9.45-13.8,59.44,59.44,0,0,0,3.23-20.41,58.52,58.52,0,0,0-3.19-20.19,30.09,30.09,0,0,0-9.4-13.63,26.34,26.34,0,0,0-30.42-.17,29.65,29.65,0,0,0-9.45,13.46A58.37,58.37,0,0,0,980.45,250.84Z"/><path class="cls-2" d="M1177,260.68v-76.1h36.75V317.1H1178.5V293h-1.38a39.19,39.19,0,0,1-14.88,18.72q-10.4,7.08-25.32,7.08a44.68,44.68,0,0,1-23.38-6,41.29,41.29,0,0,1-15.75-17.17q-5.65-11.13-5.74-26.66V184.58h36.76V262.4q.07,11.73,6.29,18.55t16.66,6.82a26.05,26.05,0,0,0,12.42-3.07,23.69,23.69,0,0,0,9.36-9.1Q1177.13,269.57,1177,260.68Z"/><path class="cls-2" d="M1296.92,319.69q-20.36,0-35-8.67a57.62,57.62,0,0,1-22.43-24.12q-7.82-15.43-7.81-35.54,0-20.37,7.89-35.76a58.45,58.45,0,0,1,22.48-24.08q14.58-8.67,34.68-8.67,17.34,0,30.37,6.3a50.76,50.76,0,0,1,20.62,17.69q7.59,11.39,8.37,26.74h-34.68q-1.47-9.92-7.72-16t-16.35-6.08a24.67,24.67,0,0,0-14.89,4.61q-6.35,4.62-9.88,13.42t-3.53,21.31q0,12.69,3.49,21.57t9.88,13.55A26.26,26.26,0,0,0,1308.7,288a22.16,22.16,0,0,0,8.37-7.55,28.83,28.83,0,0,0,4.36-12h34.68a54.25,54.25,0,0,1-8.24,26.7,50.27,50.27,0,0,1-20.32,18Q1314.62,319.68,1296.92,319.69Z"/><path class="cls-2" d="M1373.68,317.1V140.4h36.75V317.1ZM1407,279l.09-44.09h5.34l42.45-50.3h42.19l-57,66.61h-8.71Zm49.52,38.13-39-57.72,24.5-26,57.55,83.69Z"/><path class="cls-2" d="M1563.8,319.69q-20.44,0-35.16-8.33A56.29,56.29,0,0,1,1506,287.72q-7.93-15.32-7.94-36.28,0-20.44,7.94-35.89a58.62,58.62,0,0,1,22.39-24.07q14.44-8.62,33.95-8.63a70.13,70.13,0,0,1,24.46,4.19,55.09,55.09,0,0,1,19.84,12.55,57.2,57.2,0,0,1,13.25,21q4.74,12.65,4.74,29.55v10.09h-111.9V237.47H1590a28.21,28.21,0,0,0-3.46-14.07,25.09,25.09,0,0,0-9.53-9.62,27.81,27.81,0,0,0-14.11-3.49,28.25,28.25,0,0,0-14.79,3.84,27.43,27.43,0,0,0-10.05,10.27,29.08,29.08,0,0,0-3.71,14.27v21.66a36.94,36.94,0,0,0,3.66,17,26.29,26.29,0,0,0,10.4,11,31.4,31.4,0,0,0,16,3.88,34.84,34.84,0,0,0,11.22-1.72,23.26,23.26,0,0,0,8.71-5.18,22.41,22.41,0,0,0,5.52-8.45l34,2.24a46.37,46.37,0,0,1-10.57,21.35,53,53,0,0,1-20.54,14.15Q1580.19,319.7,1563.8,319.69Z"/><path class="cls-2" d="M1713,184.58v27.61h-79.8V184.58Zm-61.69-31.75h36.76V276.38a16.54,16.54,0,0,0,1.55,7.89,8.53,8.53,0,0,0,4.36,3.93,17.41,17.41,0,0,0,6.51,1.12,29.27,29.27,0,0,0,5.18-.47l4-.74,5.78,27.35c-1.84.58-4.43,1.25-7.77,2a64.34,64.34,0,0,1-12.16,1.42q-13.29.52-23.25-3.53a32.53,32.53,0,0,1-15.49-12.6q-5.52-8.55-5.44-21.57Z"/></svg>